# xmcd
#
# Track frame offsets: 
#        150
#        19327
#        41681
#        63495
#        95264
#        115728
#        138786
#        154735
#        176309
#        197850
#        222669
#        245585
#
# Disc length: 3547 seconds
#
# Revision: 0
# Processed by: cddbd v1.5.2PL0 Copyright (c) Steve Scherf et al.
# Submitted via: ExactAudioCopy v0.99pb4
#
DISCID=a70dd90c
DTITLE=The Super-Phonics - Interstellar
DYEAR=2007
DGENRE=Funk
TTITLE0=P.A.R.T.Y.
TTITLE1=Better Try And See
TTITLE2=Dial L For Love
TTITLE3=Give A Little Love
TTITLE4=Elevate Our Minds
TTITLE5=Interstellar
TTITLE6=Have A Good Time
TTITLE7=Studio 55
TTITLE8=Higher!
TTITLE9=Everybody
TTITLE10=I'm Gonna Make You Want Me
TTITLE11=The Pressure
EXTD=
EXTT0=
EXTT1=
EXTT2=
EXTT3=
EXTT4=
EXTT5=
EXTT6=
EXTT7=
EXTT8=
EXTT9=
EXTT10=
EXTT11=
PLAYORDER=
